<?xml version="1.0" standalone="no"?>
<!DOCTYPE svg PUBLIC "-//W3C//DTD SVG 1.1//EN" "http://www.w3.org/Graphics/SVG/1.1/DTD/svg11.dtd" >
<svg xmlns="http://www.w3.org/2000/svg">
<metadata>Generated by IcoMoon</metadata>
<defs>
<font id="wpdanceclaratheme" horiz-adv-x="1024">
<font-face units-per-em="1024" ascent="960" descent="-64" />
<missing-glyph horiz-adv-x="1024" />
<glyph unicode="&#x20;" horiz-adv-x="512" d="" />
<glyph unicode="&#xe000;" glyph-name="error" d="M562.479 397.521v307.681h-100.958v-307.681h100.958zM562.479 190.798v103.362h-100.958v-103.362h100.958zM512 960c283.643 0 512-228.357 512-512s-228.357-512-512-512-512 228.357-512 512 228.357 512 512 512z" />
<glyph unicode="&#xe048;" glyph-name="subtitles" d="M923.042 344.638v103.362h-514.404v-103.362h514.404zM923.042 140.319v103.362h-206.723v-103.362h206.723zM615.362 140.319v103.362h-514.404v-103.362h514.404zM100.958 448v-103.362h206.723v103.362h-206.723zM923.042 859.042c55.286 0 100.958-48.075 100.958-103.362v-615.362c0-55.286-45.671-103.362-100.958-103.362h-822.085c-55.286 0-100.958 48.075-100.958 103.362v615.362c0 55.286 45.671 103.362 100.958 103.362h822.085z" />
<glyph unicode="&#xe051;" glyph-name="web" d="M923.042 140.319v461.521h-206.723v-461.521h206.723zM665.84 397.521v204.319h-564.883v-204.319h564.883zM665.84 140.319v204.319h-564.883v-204.319h564.883zM923.042 859.042c55.286 0 100.958-48.075 100.958-103.362v-615.362c0-55.286-45.671-103.362-100.958-103.362h-822.085c-55.286 0-100.958 48.075-100.958 103.362v615.362c0 55.286 45.671 103.362 100.958 103.362h822.085z" />
<glyph unicode="&#xe167;" glyph-name="font" d="M713.916 113.879h108.169l-262.009 668.244h-96.15l-262.009-668.244h108.169l57.69 153.84h288.451zM923.043 960.001c55.286 0 100.958-45.671 100.958-100.958v-822.085c0-55.286-45.671-100.958-100.958-100.958h-822.085c-55.286 0-100.958 45.671-100.958 100.958v822.085c0 55.286 45.671 100.958 100.958 100.958h822.085zM406.236 371.081l105.765 283.643 105.765-283.643h-211.531z" />
<glyph unicode="&#xe1bc;" glyph-name="wallpaper" d="M100.958 397.521v-360.563h360.563v-100.958h-360.563c-55.286 0-100.958 45.671-100.958 100.958v360.563h100.958zM923.042 36.958v360.563h100.958v-360.563c0-55.286-45.671-100.958-100.958-100.958h-360.563v100.958h360.563zM923.042 960c55.286 0 100.958-45.671 100.958-100.958v-360.563h-100.958v360.563h-360.563v100.958h360.563zM769.202 628.282c0-43.268-33.653-76.92-76.92-76.92s-76.92 33.653-76.92 76.92 33.653 76.92 76.92 76.92 76.92-33.653 76.92-76.92zM408.638 397.521l153.84-189.897 103.362 137.014 153.84-204.319h-615.362zM100.958 859.042v-360.563h-100.958v360.563c0 55.286 45.671 100.958 100.958 100.958h360.563v-100.958h-360.563z" />
<glyph unicode="&#xe23a;" glyph-name="color" d="M0 106h1024v-170h-1024v170zM810 470c0 0 86-94 86-150 0-46-40-86-86-86s-84 40-84 86c0 56 84 150 84 150zM222 534h410l-206 204zM706 578c26-26 26-66 0-90l-234-234c-12-12-30-20-46-20s-32 8-44 20l-236 234c-26 24-26 64 0 90l220 220-102 102 62 60z" />
<glyph unicode="&#xe23c;" glyph-name="font2" d="M410 512h204l-102 270zM470 896h84l234-598h-96l-46 128h-268l-48-128h-96zM0 170h1024v-170h-1024v170z" />
<glyph unicode="&#xe413;" glyph-name="photolib" d="M0 755.68h100.958v-718.723h718.723v-100.958h-718.723c-55.286 0-100.958 45.671-100.958 100.958v718.723zM461.521 447.999l-153.84-204.319h615.362l-206.723 254.798-151.437-189.897zM1024 243.68c0-55.286-45.671-103.362-100.958-103.362h-615.362c-55.286 0-103.362 48.075-103.362 103.362v615.362c0 55.286 48.075 100.958 103.362 100.958h615.362c55.286 0 100.958-45.671 100.958-100.958v-615.362z" />
<glyph unicode="&#xe429;" glyph-name="tune" d="M682.667 618.667v341.333h114.667v-114.667h226.667v-112h-226.667v-114.667h-114.667zM1024 392h-568v112h568v-112zM226.667 618.667h114.667v-341.333h-114.667v114.667h-226.667v112h226.667v114.667zM568-64h-112v341.333h112v-114.667h456v-112h-456v-114.667zM0 845.333h568v-112h-568v112zM0 162.667h341.333v-112h-341.333v112z" />
<glyph unicode="&#xe42a;" glyph-name="view-comfy" d="M809.086 824.731h214.914v-214.914h-214.914v214.914zM809.086 71.269v214.914h214.914v-214.914h-214.914zM538.548 71.269v214.914h217.442v-214.914h-217.442zM270.538 71.269v214.914h214.914v-214.914h-214.914zM0 71.269v214.914h214.914v-214.914h-214.914zM809.086 339.279v217.442h214.914v-217.442h-214.914zM538.548 824.731h217.442v-214.914h-217.442v214.914zM270.538 609.817v214.914h214.914v-214.914h-214.914zM538.548 339.279v217.442h217.442v-217.442h-217.442zM270.538 339.279v217.442h214.914v-217.442h-214.914zM0 339.279v217.442h214.914v-217.442h-214.914zM0 609.817v214.914h214.914v-214.914h-214.914z" />
<glyph unicode="&#xe42b;" glyph-name="view-compact" d="M0 824.731h1024v-323.635h-1024v323.635zM376.731 71.269v376.731h647.269v-376.731h-647.269zM0 71.269v376.731h323.635v-376.731h-323.635z" />
<glyph unicode="&#xe563;" glyph-name="store" d="M512 106.667v226.667h-341.333v-226.667h341.333zM1024 333.333h-56v-341.333h-114.667v341.333h-226.667v-341.333h-570.667v341.333h-56v114.667l56 285.333h912l56-285.333v-114.667zM968 904v-114.667h-912v114.667h912z" />
<glyph unicode="&#xe5c3;" glyph-name="apps" d="M766.503-64v257.497h257.497v-257.497h-257.497zM766.503 319.251v257.497h257.497v-257.497h-257.497zM383.251 702.503v257.497h257.497v-257.497h-257.497zM766.503 960h257.497v-257.497h-257.497v257.497zM383.251 319.251v257.497h257.497v-257.497h-257.497zM0 319.251v257.497h257.497v-257.497h-257.497zM0-64v257.497h257.497v-257.497h-257.497zM383.251-64v257.497h257.497v-257.497h-257.497zM0 702.503v257.497h257.497v-257.497h-257.497z" />
<glyph unicode="&#xe5d2;" glyph-name="menu" d="M0 789.333h1024v-114.667h-1024v114.667zM0 392v112h1024v-112h-1024zM0 106.667v114.667h1024v-114.667h-1024z" />
<glyph unicode="&#xe62d;" glyph-name="vibration" d="M682 150v596h-340v-596h340zM704 832c36 0 64-28 64-64v-640c0-36-28-64-64-64h-384c-36 0-64 28-64 64v640c0 36 28 64 64 64h384zM810 234v428h86v-428h-86zM938 576h86v-256h-86v256zM128 234v428h86v-428h-86zM0 320v256h86v-256h-86z" />
<glyph unicode="&#xe887;" glyph-name="help" d="M668.244 486.46c28.845 28.845 48.075 69.709 48.075 115.38 0 112.977-91.343 204.319-204.319 204.319s-204.319-91.343-204.319-204.319h100.958c0 55.286 48.075 103.362 103.362 103.362s103.362-48.075 103.362-103.362c0-28.845-12.019-52.883-31.249-72.113l-62.498-64.901c-36.056-38.46-60.094-88.939-60.094-144.225v-26.441h100.958c0 76.92 24.038 105.765 60.094 144.225zM562.479 89.84v100.958h-100.958v-100.958h100.958zM512 960c283.643 0 512-228.357 512-512s-228.357-512-512-512-512 228.357-512 512 228.357 512 512 512z" />
<glyph unicode="&#xe8e9;" glyph-name="view-agenda" d="M970.904 933.452c30.341 0 53.096-22.756 53.096-53.096v-323.635c0-30.341-22.756-55.625-53.096-55.625h-917.807c-30.341 0-53.096 25.284-53.096 55.625v323.635c0 30.341 22.756 53.096 53.096 53.096h917.807zM970.904 394.904c30.341 0 53.096-25.284 53.096-55.625v-323.635c0-30.341-22.756-53.096-53.096-53.096h-917.807c-30.341 0-53.096 22.756-53.096 53.096v323.635c0 30.341 22.756 55.625 53.096 55.625h917.807z" />
<glyph unicode="&#xe8ea;" glyph-name="view-array" d="M242.6 57.3v781.399h541.62v-781.399h-541.62zM843.46 838.7h180.54v-781.399h-180.54v781.399zM0 57.3v781.399h180.54v-781.399h-180.54z" />
<glyph unicode="&#xe8eb;" glyph-name="view-carousel" d="M819.681 729.239h204.319v-564.883h-204.319v564.883zM0 164.357v564.883h204.319v-564.883h-204.319zM254.798 63.399v769.202h514.404v-769.202h-514.404z" />
<glyph unicode="&#xe8ec;" glyph-name="view-column" d="M722.16 838.7h301.84v-781.399h-301.84v781.399zM0 57.3v781.399h301.84v-781.399h-301.84zM361.080 57.3v781.399h301.84v-781.399h-301.84z" />
<glyph unicode="&#xe8ed;" glyph-name="view-day" d="M0 933.452h1024v-161.817h-1024v161.817zM970.904 662.914c30.341 0 53.096-22.756 53.096-53.096v-323.635c0-30.341-22.756-53.096-53.096-53.096h-917.807c-30.341 0-53.096 22.756-53.096 53.096v323.635c0 30.341 22.756 53.096 53.096 53.096h917.807zM0-37.452v161.817h1024v-161.817h-1024z" />
<glyph unicode="&#xe8ee;" glyph-name="view-headline" d="M0 894.129h1024v-125.754h-1024v125.754zM0 510.877v128.749h1024v-128.749h-1024zM0 1.871v125.754h1024v-125.754h-1024zM0 256.374v128.749h1024v-128.749h-1024z" />
<glyph unicode="&#xe8ef;" glyph-name="view-list" d="M301.84 868.32h722.16v-239.78h-722.16v239.78zM301.84 27.68v239.78h722.16v-239.78h-722.16zM301.84 326.7v242.601h722.16v-242.601h-722.16zM0 628.54v239.78h242.601v-239.78h-242.601zM0 27.68v239.78h242.601v-239.78h-242.601zM0 326.7v242.601h242.601v-242.601h-242.601z" />
<glyph unicode="&#xe8f0;" glyph-name="view-module" d="M722.16 838.7h301.84v-361.080h-301.84v361.080zM361.080 477.62v361.080h301.84v-361.080h-301.84zM722.16 57.3v361.080h301.84v-361.080h-301.84zM361.080 57.3v361.080h301.84v-361.080h-301.84zM0 57.3v361.080h301.84v-361.080h-301.84zM0 477.62v361.080h301.84v-361.080h-301.84z" />
<glyph unicode="&#xe8f1;" glyph-name="view-quilt" d="M361.080 838.7h662.92v-361.080h-662.92v361.080zM722.16 57.3v361.080h301.84v-361.080h-301.84zM0 57.3v781.399h301.84v-781.399h-301.84zM361.080 57.3v361.080h301.84v-361.080h-301.84z" />
<glyph unicode="&#xe8f2;" glyph-name="view-stream" d="M0 838.7h1024v-361.080h-1024v361.080zM0 57.3v361.080h1024v-361.080h-1024z" />
<glyph unicode="&#xe8f3;" glyph-name="view-week" d="M591.644 824.731c30.341 0 55.625-22.756 55.625-53.096v-647.269c0-30.341-25.284-53.096-55.625-53.096h-161.817c-30.341 0-53.096 22.756-53.096 53.096v647.269c0 30.341 22.756 53.096 53.096 53.096h161.817zM970.904 824.731c30.341 0 53.096-22.756 53.096-53.096v-647.269c0-30.341-22.756-53.096-53.096-53.096h-161.817c-30.341 0-55.625 22.756-55.625 53.096v647.269c0 30.341 25.284 53.096 55.625 53.096h161.817zM214.913 824.731c30.341 0 53.096-22.756 53.096-53.096v-647.269c0-30.341-22.756-53.096-53.096-53.096h-161.817c-30.341 0-53.096 22.756-53.096 53.096v647.269c0 30.341 22.756 53.096 53.096 53.096h161.817z" />
<glyph unicode="&#xe8fd;" glyph-name="help2" d="M512 755.681c112.977 0 204.319-91.343 204.319-204.319 0-127.399-153.84-141.822-153.84-257.202h-100.958c0 165.859 153.84 153.84 153.84 257.202 0 55.286-48.075 100.958-103.362 100.958s-103.362-45.671-103.362-100.958h-100.958c0 112.977 91.343 204.319 204.319 204.319zM512 36.958c225.953 0 411.042 185.089 411.042 411.042s-185.089 411.042-411.042 411.042-411.042-185.089-411.042-411.042 185.089-411.042 411.042-411.042zM512 960c283.643 0 512-228.357 512-512s-228.357-512-512-512-512 228.357-512 512 228.357 512 512 512zM461.521 140.319v103.362h100.958v-103.362h-100.958z" />
<glyph unicode="&#xe900;" glyph-name="teaser" d="M719.743 277.334h-188.78v188.78c100.070-9.018 179.762-88.709 188.78-188.78zM719.743 239.408c-9.581-106.316-98.932-189.629-207.743-189.629-115.202 0-208.592 93.39-208.592 208.592 0 108.811 83.314 198.162 189.629 207.743v-226.706h226.706zM606.815 959.999h-378.935c-42.070 0-76.175-34.070-76.175-76.13v-871.739c0-42.046 33.79-76.13 75.755-76.13h569.084c41.838 0 75.755 33.79 75.755 75.755v644.837h-189.405c-42.016 0-76.076 33.63-76.076 75.779v227.628zM644.741 959.999v-227.444c0-21.007 17.103-38.037 37.576-38.037h189.979l-227.555 265.481z" />
<glyph unicode="&#xe901;" glyph-name="about" d="M950.859 722.286h-71.607v107.447l-147.822 2.267 0.768-109.714h-444.197l3.035 109.714-144.75-2.267v-109.714l-73.143 2.267c-40.375 0-73.143-32.768-73.143-73.143v-512c0-40.375 32.768-73.143 73.143-73.143h877.714c40.375 0 73.143 32.768 73.143 73.143v512c0 40.375-32.768 73.143-73.143 73.143zM768.002 795.429h73.143v-146.286h-73.143v146.286zM292.573 546.304c44.178 0 80.018-47.067 80.018-105.143s-35.84-105.143-80.018-105.143-80.018 47.067-80.018 105.143 35.84 105.143 80.018 105.143zM182.859 795.429h73.143v-146.286h-73.143v146.286zM134.109 212.188c0 0 8.667 69.559 28.379 82.688 19.675 13.129 76.434 21.87 76.434 21.87s36.791-39.314 52.443-39.314c15.616 0 52.407 39.314 52.407 39.314s56.759-8.704 76.471-21.87c23.15-15.433 28.928-82.688 28.928-82.688h-315.063zM877.716 246.857h-329.143v36.571h329.143v-36.571zM877.716 320h-329.143v36.571h329.143v-36.571zM877.716 393.143h-329.143v36.571h329.143v-36.571zM877.716 466.286h-329.143v36.571h329.143v-36.571z" />
<glyph unicode="&#xe902;" glyph-name="contact" d="M511.872 465.376l512.128 241.248v125.376h-1024v-124.992zM512.128 323.872l-512.128 241.888v-501.76h1024v500.992z" />
<glyph unicode="&#xe903;" glyph-name="faq" d="M128.008 959.998c-15.233 0-28.21-5.332-38.877-16.001s-16.001-23.644-16.001-38.877v-914.304c0-15.233 5.332-28.148 16.001-38.814s23.644-16.001 38.877-16.001h768.046c15.233 0 28.148 5.332 38.814 16.001s16.001 23.583 16.001 38.814v603.474h-310.831c-15.233 0-28.21 5.332-38.877 16.001s-16.001 23.581-16.001 38.814v310.894h-457.152zM658.29 937.122v-269.702h269.765c-5.332 8.384-10.667 15.23-16.001 20.563l-233.139 233.139c-5.332 5.332-12.243 10.667-20.626 16.001zM637.914 526.287c13.121 0 25.077-2.209 35.878-6.689s20.071-10.707 27.751-18.627c7.68-7.841 13.635-17.184 17.877-28.063 4.24-10.801 6.376-22.595 6.376-35.315 0-7.76-0.838-15.193-2.437-22.314-1.601-7.040-3.899-13.591-6.938-19.752-2.959-6.16-6.617-11.863-10.937-17.063-4.321-5.12-9.23-9.643-14.751-13.562l44.065-48.003h-26.688c-3.84 0-7.319 0.522-10.439 1.561-3.041 1.039-5.816 2.95-8.375 5.75l-25.44 28.065c-4.080-1.121-8.306-1.939-12.627-2.501-4.24-0.56-8.672-0.813-13.313-0.813-13.121 0-25.122 2.162-36.002 6.563-10.801 4.481-20.055 10.707-27.814 18.627-7.68 7.921-13.635 17.263-17.877 28.063-4.24 10.88-6.376 22.656-6.376 35.377s2.134 24.515 6.376 35.315c4.24 10.88 10.197 20.267 17.877 28.188 7.76 7.921 17.012 14.101 27.814 18.501 10.88 4.481 22.881 6.689 36.002 6.689zM278.080 524.412h109.445v-25.689h-76.942v-51.378h64.941v-25.815h-64.941v-70.691h-32.503v173.573zM446.151 524.412h33.002l68.191-173.573h-25.002c-2.801 0-5.099 0.702-6.938 2.062-1.76 1.441-3.075 3.17-3.875 5.25l-12.939 35.44h-71.88l-12.939-35.44c-0.641-1.841-1.955-3.48-3.875-5-1.841-1.52-4.094-2.311-6.814-2.311h-25.126l68.192 173.573zM637.914 498.848c-8.48 0-16.077-1.451-22.876-4.25s-12.638-6.782-17.439-12.062c-4.721-5.281-8.378-11.775-10.938-19.376-2.561-7.52-3.814-16.043-3.814-25.563s1.253-18.026 3.814-25.626c2.561-7.52 6.218-13.971 10.938-19.25 4.8-5.2 10.639-9.2 17.439-12.001s14.396-4.189 22.876-4.189c8.48 0 16.093 1.388 22.813 4.189 6.799 2.801 12.593 6.799 17.314 12.001 4.721 5.281 8.27 11.731 10.751 19.25 2.561 7.601 3.875 16.106 3.875 25.626s-1.316 18.043-3.875 25.563c-2.48 7.601-6.030 14.097-10.751 19.376s-10.515 9.263-17.314 12.062c-6.72 2.801-14.333 4.25-22.813 4.25zM462.591 494.533c-1.121-4.080-2.254-7.919-3.375-11.438-1.039-3.521-2.085-6.61-3.125-9.251l-21.126-57.441h55.379l-21.126 57.69c-0.96 2.561-2.051 5.561-3.251 9.001-1.121 3.521-2.254 7.358-3.375 11.438z" />
<glyph unicode="&#xe904;" glyph-name="team-member" d="M193.029 839.894c-0.002 0-0.002 0-0.003 0-61.931 0-112.138-55.436-112.138-123.818 0 0 0 0 0 0 0.003-68.38 50.207-123.813 112.138-123.813 0.002 0 0.002 0 0.003 0 61.929 0.002 112.131 55.433 112.135 123.811 0 0.002 0 0.002 0 0.002 0 68.382-50.204 123.818-112.135 123.818zM503.745 837.561c-0.002 0-0.002 0-0.003 0-69.673 0-126.154-63.803-126.155-142.508s56.481-142.508 126.155-142.508c0.002 0 0.002 0 0.003 0 69.671 0.002 126.152 63.804 126.152 142.508s-56.479 142.506-126.152 142.508zM820.295 837.561c-61.286-0.002-110.968-55.436-110.968-123.818 0 0 0 0 0 0s0 0 0 0c0-68.382 49.682-123.818 110.968-123.818 0.002 0 0.003 0 0.005 0 61.286 0 110.97 55.436 110.97 123.818 0 0 0 0 0 0s0 0 0 0c0 68.382-49.682 123.818-110.97 123.818-0.002 0-0.003 0-0.005 0zM181.454 562.195c-38.388-0.667-81.049-15.279-123.926-56.373-57.528-55.135-57.234-289.689-57.234-289.689s25.697-65.413 244.132-50.228c-4.403 256.996 85.275 331.739 85.275 331.739s-63.792 66.021-148.245 64.551zM821.534 561.944c-69.881-1.024-133.934-40.319-136.735-64.299 34.176-52.811 74.756-107.467 80.595-329.405 0 0 186.71-20.278 233.62 44.389 24.986 280.253-81.718 350.719-177.482 349.315zM511.541 519.373c-67.308-0.205-130.707-29.726-154.981-56.773-40.884-45.555-74.759-164.7-68.918-345.755 0 0 8.176-58.405 211.426-59.572s220.776 59.572 220.776 59.572c0 0 18.687 259.321-75.929 351.6-38.438 37.489-86.321 51.068-132.374 50.928z" />
<glyph unicode="&#xe905;" glyph-name="price-table" d="M299.707 128.312v42.459h-299.707v554.458h299.707v84.916h424.586v-84.916h299.707v-554.458h-299.707v-84.916h-424.586v42.459zM681.834 193.247v64.937h-339.667v-129.872h339.667v64.937zM384.624 192v21.229h254.751v-42.459h-254.751v21.229zM299.707 278.165v64.937h-257.248v-129.872h257.248v64.937zM84.916 279.413v21.229h172.332v-42.459h-172.332v21.229zM981.541 278.165v64.937h-257.248v-129.872h257.248v64.937zM766.75 279.413v21.229h172.332v-42.459h-172.332v21.229zM681.834 534.164v233.522h-339.667v-467.043h339.667v233.522zM384.624 449.248v21.229h254.751v-42.459h-254.751v21.229zM384.624 534.164v21.229h254.751v-42.459h-254.751v21.229zM427.083 661.539v21.229h172.332v-42.459h-172.332v21.229zM299.707 534.164v148.604h-257.248v-297.21h257.248v148.604zM84.916 449.248v21.229h172.332v-42.459h-172.332v21.229zM84.916 534.164v21.229h172.332v-42.459h-172.332v21.229zM129.872 619.082v21.229h84.916v-42.459h-84.916v21.229zM981.541 534.164v148.604h-257.248v-297.21h257.248v148.604zM766.75 449.248v21.229h172.332v-42.459h-172.332v21.229zM766.75 534.164v21.229h172.332v-42.459h-172.332v21.229zM809.209 619.082v21.229h84.916v-42.459h-84.916v21.229z" />
<glyph unicode="&#xe906;" glyph-name="custom-header" d="M0 959.999v-92.16h1024v92.16zM0 816.64v-552.96h1024v552.96zM0 212.481v-276.48h1024v276.48z" />
<glyph unicode="&#xe907;" glyph-name="fullwidth" d="M0 959.999v-153.6h1024v153.6zM0 755.2v-614.4h1024v614.4zM0 89.601v-153.6h1024v153.6z" />
<glyph unicode="&#xe908;" glyph-name="leftsidebar" d="M0.001 959.999v-153.6h1024v153.6zM307.201 755.2v-614.4h716.8v614.4zM0.001 755.2v-614.4h256v614.4zM0.001 89.601v-153.6h1024v153.6z" />
<glyph unicode="&#xe909;" glyph-name="rightsidebar" d="M0 959.999v-153.6h1024v153.6h-1024zM0 755.2v-614.4h716.8v614.4h-716.8zM768 755.2v-614.4h256v614.4h-256zM0 89.601v-153.6h1024v153.6h-1024z" />
<glyph unicode="&#xe90a;" glyph-name="infinity" d="M771.248 700.753c-67.46 0-130.881-26.269-177.629-72.901l-81.677-78.4-80.448 77.23c-47.683 47.801-111.222 74.071-178.741 74.071s-130.999-26.387-178.623-74.071c-47.801-47.742-74.13-111.165-74.13-178.741 0-67.401 26.269-130.94 74.071-178.623 47.626-47.742 111.106-74.071 178.682-74.071 67.46 0 130.999 26.269 177.629 73.017l81.618 78.283 80.506-77.23c47.683-47.742 111.222-74.071 178.741-74.071s130.94 26.269 178.623 74.071c47.801 47.626 74.13 111.165 74.13 178.741s-26.269 130.94-74.071 178.741c-47.801 47.683-111.222 73.954-178.682 73.954zM327.995 372.819c-40.195-40.254-110.228-40.254-150.482 0-20.126 20.126-31.184 46.865-31.184 75.183 0 28.435 11.058 55.055 31.302 75.299 20.010 20.126 46.748 31.184 75.124 31.184s55.114-11.058 76.352-32.237l77.289-74.305-78.4-75.124zM846.43 372.819c-40.195-40.311-109.175-41.248-151.535 1.053l-77.289 74.305 78.342 75.183c40.254 40.254 110.345 40.254 150.54 0.117 20.126-20.244 31.184-46.865 31.184-75.299s-11.117-55.231-31.243-75.358z" />
<glyph unicode="&#xe90b;" glyph-name="filter" horiz-adv-x="1029" d="M1016.788 925.857q12.216-29.462-10.060-50.301l-354.261-354.261v-533.189q0-30.181-28.025-42.396-9.342-3.593-17.965-3.593-19.402 0-32.336 13.653l-183.958 183.958q-13.653 13.653-13.653 32.336v349.231l-354.261 354.261q-22.276 20.838-10.060 50.301 12.216 28.025 42.396 28.025h919.787q30.181 0 42.396-28.025z" />
<glyph unicode="&#xe90c;" glyph-name="heart-o" d="M950.857 619.429q0 46.286-12.286 81.714t-31.429 56.286-46.571 34-53.714 17.714-56 4.571-64-14.571-63.143-36.571-49.429-41.143-34.286-35.143q-10.286-12.571-28-12.571t-28 12.571q-13.714 16-34.286 35.143t-49.429 41.143-63.143 36.571-64 14.571-56-4.571-53.714-17.714-46.571-34-31.429-56.286-12.286-81.714q0-96 106.857-202.857l332-320 331.429 319.429q107.429 107.429 107.429 203.429zM1024 619.429q0-126.286-130.857-257.143l-356-342.857q-10.286-10.286-25.143-10.286t-25.143 10.286l-356.571 344q-5.714 4.571-15.714 14.857t-31.714 37.429-38.857 55.714-30.571 69.143-13.429 78.857q0 125.714 72.571 196.571t200.571 70.857q35.429 0 72.286-12.286t68.571-33.143 54.571-39.143 43.429-38.857q20.571 20.571 43.429 38.857t54.571 39.143 68.571 33.143 72.286 12.286q128 0 200.571-70.857t72.571-196.571z" />
<glyph unicode="&#xe90d;" glyph-name="heart" d="M512.001 9.143q-14.857 0-25.143 10.286l-356.572 344.001q-5.714 4.571-15.714 14.857t-31.714 37.429-38.857 55.714-30.571 69.143-13.429 78.857q0 125.714 72.571 196.571t200.571 70.857q35.429 0 72.286-12.286t68.571-33.143 54.571-39.143 43.429-38.857q20.571 20.571 43.429 38.857t54.571 39.143 68.571 33.143 72.286 12.286q128 0 200.571-70.857t72.571-196.571q0-126.286-130.857-257.144l-356.001-342.858q-10.286-10.286-25.143-10.286z" />
<glyph unicode="&#xe90e;" glyph-name="palette" d="M816.728 851.787c-186.644 62.743-373.816 50.84-567.131-67.399-150.934-92.211-249.599-321.442-217.064-485.76 38.514-194.209 230.183-317.157 488.988-246.054 279.066 76.657 346.465 240.499 337.472 282.188s-140.988 87.396-90.889 185.057c62.85 122.366 165.535 60.786 210.661 85.809 45.232 24.97 28.515 182.093-162.044 246.16zM623.842 285.402c-42.217-11.533-85.863 13.543-97.502 56.025-11.691 42.587 13.12 86.285 55.337 97.819s85.809-13.438 97.502-56.025c11.639-42.482-13.12-86.285-55.337-97.819z" />
<glyph unicode="&#xe90f;" glyph-name="visual-composer" d="M258.748 960l-249.901-149.952-0.353 0.208v-0.421l-0.008-0.005 0.008-0.005v-289.877l250.265-146.822v289.886l254.644 147.666-254.654 149.319zM513.402 810.679v-294.543l-254.644-143.009v-290.305l250.263-146.822v290.304l254.646 143.012v290.305l251.847 149.787-251.847 147.204-250.265-145.933z" />
<glyph unicode="&#xe910;" glyph-name="woocommerce" horiz-adv-x="1025" d="M95.499 752.942c-52.783 0-95.5-43.143-95.083-95.509v-318.34c0-52.783 42.724-95.509 95.509-95.509h395.004l180.534-100.526-41.043 100.526h299.073c52.783 0 95.509 42.724 95.509 95.509v318.34c0 52.783-42.724 95.509-95.509 95.509h-833.976zM445.488 696.434c8.205-0.085 15.771-3.002 22.69-8.471 7.918-6.241 12.074-14.161 12.91-23.738 0.414-7.5-0.829-13.739-4.165-19.983-16.248-29.989-29.57-80.38-40.395-150.358-10.416-67.888-14.164-120.785-11.66-158.677 0.829-10.416-0.829-19.583-4.997-27.492-5.003-9.158-12.493-14.159-22.079-14.99-10.834-0.829-22.074 4.165-32.905 15.409-38.737 39.567-69.556 98.696-92.045 177.417-27.073-53.313-47.065-93.295-59.978-119.947-24.576-47.065-45.388-71.216-62.884-72.471-11.246-0.829-20.822 8.755-29.151 28.744-21.241 54.556-44.15 159.932-68.717 316.115-1.668 10.834 0.829 20.405 6.661 27.912 5.83 7.918 14.578 12.077 26.237 12.913 21.241 1.668 33.317-8.326 36.23-29.989 12.913-87.052 27.073-160.771 42.072-221.165l91.206 173.679c8.332 15.828 18.744 24.152 31.233 24.977 18.325 1.248 29.57-10.41 34.149-34.982 10.416-55.395 23.738-102.451 39.571-142.436 10.834 105.786 29.15 182.002 54.975 229.058 6.241 11.659 15.409 17.5 27.492 18.325 1.192 0.105 2.373 0.143 3.554 0.132zM603.944 651.316c7.080 0 14.571-0.829 22.488-2.488 29.15-6.241 51.64-22.079 66.639-48.318 13.331-22.491 20-49.563 20-82.043 0-42.894-10.834-82.055-32.486-117.869-24.993-41.653-57.471-62.469-97.876-62.469-7.080 0-14.571 0.83-22.488 2.507-29.57 6.241-51.64 22.068-66.639 48.305-13.331 22.905-20 50.401-20 82.466 0 42.894 10.834 82.043 32.486 117.45 25.407 41.653 57.891 62.469 97.876 62.469zM864.664 651.316c7.080 0 14.59-0.829 22.499-2.488 29.57-6.241 51.64-22.079 66.639-48.318 13.331-22.491 20.402-49.563 19.983-82.043 0-42.894-10.834-82.055-32.486-117.869-24.993-41.653-57.471-62.469-97.876-62.469-7.080 0-14.571 0.83-22.488 2.507-29.57 6.241-51.64 22.068-66.639 48.305-13.331 22.905-20 50.401-20 82.466 0 42.894 10.834 82.043 32.486 117.45 25.407 41.653 57.891 62.469 97.876 62.469zM605.424 581.497c-13.027 0.084-25.681-8.529-37.708-26.387-11.246-15.828-18.325-32.486-22.079-49.563-2.087-9.577-2.917-19.997-2.917-30.409 0-12.074 2.5-24.981 7.5-37.899 6.241-16.248 14.581-24.996 24.576-27.073 10.416-2.087 21.652 2.502 33.725 13.331 15.409 13.748 25.829 34.158 31.661 61.646 2.087 9.577 3.328 19.993 2.917 30.825 0 12.074-2.5 24.996-7.5 37.899-6.241 16.248-14.581 24.989-24.576 27.073-1.877 0.368-3.745 0.55-5.609 0.563zM866.567 581.497c-13.027 0.084-25.689-8.529-37.714-26.387-11.246-15.828-18.325-32.486-22.079-49.563-2.087-9.577-2.917-19.997-2.917-30.409 0-12.074 2.5-24.981 7.5-37.899 6.241-16.248 14.581-24.996 24.576-27.073 10.416-2.087 21.661 2.502 33.742 13.331 15.409 13.748 25.815 34.158 31.647 61.646 2.087 9.577 2.917 19.993 2.917 30.825 0 12.074-2.5 24.996-7.5 37.899-6.241 16.248-14.581 24.989-24.576 27.073-1.877 0.368-3.737 0.55-5.594 0.563z" />
<glyph unicode="&#xe911;" glyph-name="infinity2" d="M771.249 700.751c-67.46 0-130.881-26.269-177.629-72.901l-81.677-78.4-80.448 77.23c-47.683 47.801-111.222 74.071-178.741 74.071s-130.999-26.387-178.623-74.071c-47.801-47.742-74.13-111.165-74.13-178.741 0-67.401 26.269-130.94 74.071-178.623 47.626-47.742 111.106-74.071 178.682-74.071 67.46 0 130.999 26.269 177.629 73.017l81.618 78.283 80.506-77.23c47.683-47.742 111.222-74.071 178.741-74.071s130.94 26.269 178.623 74.071c47.801 47.626 74.13 111.165 74.13 178.741s-26.269 130.94-74.071 178.741c-47.801 47.683-111.222 73.954-178.682 73.954zM327.996 372.817c-40.195-40.254-110.228-40.254-150.482 0-20.126 20.126-31.184 46.865-31.184 75.183 0 28.435 11.058 55.055 31.302 75.299 20.010 20.126 46.748 31.184 75.124 31.184s55.114-11.058 76.352-32.237l77.289-74.305-78.4-75.124zM846.431 372.817c-40.195-40.311-109.175-41.248-151.535 1.053l-77.289 74.305 78.342 75.183c40.254 40.254 110.345 40.254 150.54 0.117 20.126-20.244 31.184-46.865 31.184-75.299s-11.117-55.231-31.243-75.358z" />
<glyph unicode="&#xe912;" glyph-name="sass" horiz-adv-x="1029" d="M884.403 384.887c-35.751-0.2-66.711-8.788-92.675-21.571-9.587 18.974-19.174 35.553-20.772 47.936-1.798 14.381-3.994 23.168-1.798 40.346s12.184 41.545 12.184 43.541c-0.2 1.798-2.196 10.585-22.77 10.785s-38.348-3.994-40.346-9.387-5.992-17.776-8.589-30.559c-3.595-18.775-41.144-85.285-62.517-120.238-6.99 13.581-12.982 25.565-14.181 35.152-1.798 14.381-3.994 23.168-1.798 40.346s12.184 41.545 12.184 43.541c-0.2 1.798-2.196 10.585-22.77 10.785s-38.348-3.994-40.346-9.387-4.194-18.176-8.589-30.559c-4.194-12.383-54.128-123.434-67.11-152.396-6.591-14.78-12.383-26.565-16.577-34.553s-0.2-0.599-0.599-1.399c-3.595-6.791-5.593-10.585-5.593-10.585v-0.2c-2.796-4.994-5.792-9.787-7.19-9.787-0.998 0-2.996 13.382 0.399 31.757 7.39 38.548 25.366 98.667 25.166 100.865 0 0.998 3.395 11.585-11.585 16.977-14.581 5.393-19.773-3.595-20.972-3.595s-2.196-3.196-2.196-3.196 16.178 67.709-30.958 67.709c-29.56 0-70.306-32.156-90.478-61.517-12.783-6.99-39.946-21.771-68.707-37.549-10.986-5.992-22.37-12.383-33.155-18.176l-2.196 2.397c-57.124 60.918-162.781 104.060-158.387 185.949 1.597 29.76 11.984 108.254 202.927 203.326 156.39 77.895 281.621 56.524 303.392 8.988 30.958-67.909-66.909-194.139-229.492-212.314-61.916-6.99-94.473 16.977-102.662 25.965-8.589 9.387-9.787 9.787-12.982 7.989-5.193-2.796-1.998-11.184 0-16.178 4.794-12.583 24.767-34.953 58.721-46.138 29.76-9.787 102.462-15.18 190.344 18.775 98.468 38.148 175.364 144.007 152.795 232.486-22.97 90.079-172.368 119.639-313.578 69.507-84.088-29.96-175.164-76.697-240.676-138.015-77.895-72.702-90.278-136.217-85.085-162.581 18.176-94.073 147.801-155.39 199.731-200.73-2.597-1.399-4.994-2.796-7.19-3.994-25.965-12.783-124.831-64.513-149.598-119.239-27.962-61.916 4.394-106.456 25.965-112.449 66.711-18.575 135.019 14.78 171.969 69.707 36.75 54.926 32.356 126.23 15.379 158.786l-0.599 1.199 20.372 11.984c13.182 7.789 26.165 14.98 37.549 21.172-6.391-17.377-10.986-37.949-13.382-67.909-2.796-35.152 11.585-80.691 30.559-98.667 8.389-7.789 18.375-7.989 24.567-7.989 21.97 0 31.958 18.176 42.942 39.946 13.581 26.565 25.565 57.322 25.565 57.322s-14.98-83.288 25.965-83.288c14.98 0 29.96 19.375 36.75 29.36v-0.2s0.399 0.599 1.199 1.998c1.597 2.397 2.397 3.795 2.397 3.795v0.399c5.992 10.387 19.375 34.154 39.347 73.501 25.765 50.731 50.532 114.246 50.532 114.246s2.397-15.579 9.787-41.144c4.394-15.18 13.982-31.757 21.371-47.936-5.992-8.389-9.587-13.182-9.587-13.182l0.2-0.2c-4.794-6.391-10.186-13.182-15.779-19.974-20.372-24.367-44.739-52.13-47.936-60.119-3.795-9.387-2.996-16.378 4.394-21.97 5.393-3.994 14.98-4.794 25.166-3.994 18.375 1.199 31.158 5.792 37.549 8.589 9.986 3.595 21.371 8.988 32.356 16.977 19.974 14.78 32.156 35.751 30.958 63.714-0.599 15.379-5.593 30.559-11.784 44.94 1.798 2.597 3.595 5.193 5.393 7.989 31.557 46.138 55.925 96.869 55.925 96.869s2.397-15.579 9.787-41.144c3.795-12.982 11.385-27.164 18.176-41.144-29.56-24.167-48.136-52.13-54.527-70.505-11.784-33.954-2.597-49.333 14.78-52.929 7.789-1.597 18.974 1.998 27.363 5.593 10.387 3.395 22.97 9.188 34.553 17.776 19.974 14.78 39.148 35.353 38.148 63.116-0.599 12.783-3.994 25.366-8.589 37.35 25.166 10.387 57.723 16.378 99.067 11.385 88.88-10.387 106.456-65.912 103.061-89.080s-21.97-35.952-28.162-39.946c-6.192-3.795-8.189-5.193-7.589-7.989 0.799-4.194 3.595-3.994 8.988-3.196 7.39 1.199 46.737 18.974 48.335 61.717 2.397 54.926-49.733 114.845-142.209 114.246zM198.927 153.799c-29.36-32.156-70.705-44.341-88.282-33.954-18.974 10.986-11.585 58.321 24.567 92.475 21.97 20.772 50.532 39.946 69.307 51.731 4.194 2.597 10.585 6.391 18.176 10.986 1.199 0.799 1.998 1.199 1.998 1.199 1.399 0.799 2.996 1.798 4.594 2.796 13.382-48.735 0.599-91.477-30.359-125.232zM413.637 299.802c-10.186-24.966-31.757-89.080-44.739-85.485-11.184 2.996-17.976 51.531-2.196 99.466 7.989 24.167 24.966 52.929 34.953 64.114 16.178 17.976 33.755 23.968 38.148 16.577 5.193-9.587-19.773-79.094-26.165-94.673zM590.799 215.117c-4.394-2.196-8.389-3.795-10.186-2.597-1.399 0.799 1.798 3.795 1.798 3.795s22.17 23.767 30.958 34.753c4.994 6.391 10.986 13.782 17.377 22.17v-2.397c0-28.761-27.563-47.936-39.946-55.725zM727.415 246.275c-3.196 2.397-2.796 9.787 7.989 32.956 4.194 9.188 13.782 24.567 30.359 39.148 1.998-5.992 3.196-11.784 2.996-17.177-0.2-35.952-25.765-49.333-41.344-54.926z" />
<glyph unicode="&#xe913;" glyph-name="bootstrap" d="M170.667 960c-93.867 0-170.667-76.8-170.667-170.667v-682.666c0-93.867 76.8-170.667 170.667-170.667h682.666c93.867 0 170.667 76.8 170.667 170.667v682.666c0 93.867-76.8 170.667-170.667 170.667h-682.666zM278.255 737.465h290.301c53.542 0 96.544-12.214 128.836-36.81s48.523-61.573 48.523-111.268c0-30.118-7.363-55.884-22.087-77.301s-35.805-38.149-63.244-49.863v-1.672c36.81-7.864 64.753-25.264 83.659-52.203 18.907-27.106 28.444-60.906 28.444-101.731 0-23.425-4.183-45.342-12.549-65.587-8.365-20.413-21.417-37.981-39.319-52.705s-40.659-26.437-68.601-35.137c-27.942-8.701-61.072-13.051-99.556-13.051h-274.405v597.333zM382.83 652.298v-164.977h170.667c25.098 0 46.012 7.029 62.745 21.418s25.098 34.801 25.098 61.572c0 30.118-7.528 51.367-22.588 63.582s-36.81 18.405-65.254 18.405h-170.667zM382.83 412.195v-186.729h184.888c31.791 0 56.553 8.2 73.954 24.765 17.569 16.396 26.437 39.82 26.437 69.937 0 29.616-8.701 52.204-26.437 68.268s-42.163 23.758-73.954 23.758h-184.888z" />
<glyph unicode="&#xe914;" glyph-name="preset" d="M486.764-61.263c-11.11 3.466-17.992 10.724-21.506 22.689-2.587 8.803-2.952 23.973-2.933 121.909 0.024 123.542 0.272 126.587 11.163 137.020 9.61 9.208 17.579 10.303 74.842 10.303 57.471 0 66.252-1.218 75.023-10.415 7.114-7.457 8.912-13.724 10.59-36.929 1.639-22.657 3.426-29.395 9.581-36.101 9.711-10.582 2.915-10.143 172.21-11.134 167.076-0.978 161.1-0.61 171.464-10.5 7.564-7.217 10.415-19.529 10.415-44.973s-2.851-37.758-10.415-44.973c-10.367-9.89-4.388-9.525-171.464-10.5-166.905-0.978-161.11-0.623-171.378-10.42-6.514-6.216-8.462-12.645-10.388-34.332-1.82-20.485-3.797-26.808-10.614-33.956-8.829-9.256-17.459-10.428-75.769-10.292-39.263 0.091-54.918 0.759-60.822 2.603zM50.252 27.86c-18.21 5.68-23.874 18.205-23.874 52.79 0 34.771 5.749 47.221 24.354 52.747 13.681 4.063 336.083 4.015 349.78-0.051 11.496-3.413 19.409-11.283 22.545-22.417 3.125-11.097 3.125-49.542 0-60.641-3.136-11.134-11.049-19.004-22.545-22.417-13.092-3.887-337.799-3.9-350.262-0.013zM286.697 302.499c-4.375 1.364-10.329 4.756-13.228 7.535-10.476 10.036-10.646 12.218-10.646 136.154 0 123.899 0.173 126.121 10.622 136.133 9.434 9.040 17.925 10.281 70.273 10.281 52.579 0 61.848-1.369 70.478-10.415 6.943-7.276 8.837-13.564 10.633-35.269 1.75-21.165 3.546-27.591 9.538-34.121 9.948-10.841-7.457-10.138 276.793-11.134 209.248-0.733 261.156-1.377 265.544-3.298 15.78-6.908 20.917-19.497 20.917-51.266s-5.134-44.355-20.917-51.266c-4.388-1.921-56.298-2.566-265.544-3.298-284.247-0.994-266.844-0.293-276.793-11.134-6.077-6.621-7.87-13.209-9.562-35.115-1.734-22.449-3.578-28.726-10.609-36.095-8.693-9.109-17.808-10.428-71.221-10.292-35.416 0.088-50.448 0.783-56.277 2.603zM50.252 395.258c-18.053 5.63-23.874 18.285-23.874 51.881 0 33.78 5.909 46.361 24.354 51.838 13.34 3.962 129.091 3.911 142.471-0.061 10.769-3.2 19.308-11.733 22.217-22.212 2.47-8.896 2.47-50.315 0-59.21-2.909-10.479-11.448-19.012-22.217-22.212-12.796-3.802-130.78-3.821-142.953-0.024zM655.913 668.078c-4.375 1.364-10.329 4.756-13.228 7.535-10.484 10.044-10.646 12.136-10.646 137.063 0 124.89 0.165 127.024 10.622 137.042 9.434 9.040 17.922 10.281 70.312 10.281s60.878-1.242 70.312-10.281c6.096-5.84 10.622-19.388 10.622-31.793 0-13.444 3.493-26.592 8.715-32.8 9.49-11.278 10.18-11.371 93.137-12.45 80.53-1.050 81.692-1.183 91.437-10.479 7.884-7.521 10.415-19.343 10.415-48.609s-2.534-41.091-10.415-48.609c-9.738-9.29-10.926-9.429-91.437-10.521-80.341-1.092-81.769-1.255-91.352-10.396-6.514-6.216-8.462-12.645-10.388-34.332-1.82-20.485-3.797-26.808-10.614-33.956-8.693-9.109-17.808-10.428-71.221-10.292-35.416 0.088-50.448 0.783-56.277 2.603zM50.252 757.198c-18.794 5.861-23.874 17.875-23.874 56.426 0 38.741 5.161 50.682 24.354 56.384 13.785 4.095 494.255 4.036 508.050-0.061 10.055-2.987 19.404-11.747 21.844-20.475 1.809-6.461 1.809-65.314 0-71.775-0.765-2.731-3.911-7.841-6.991-11.347-10.985-12.511 3.301-11.888-269.77-11.752-202.119 0.099-247.073 0.562-253.616 2.603zM485.624-59.435c-9.165 3.24-16.444 11.241-19.374 21.295-3.298 11.318-3.2 231.671 0.109 243.226 2.875 10.034 11.715 19.113 21.168 21.738 11.073 3.075 114.358 2.555 123.259-0.618 15.282-5.451 19.348-13.191 21.469-40.883 2.379-31.068 6.506-39.65 22.542-46.88 6.743-3.040 18.136-3.333 162.757-4.18 139.914-0.818 156.054-1.21 160.967-3.906 14.086-7.729 17.115-16.532 17.115-49.75s-3.029-42.018-17.115-49.75c-4.913-2.696-21.056-3.088-160.967-3.906-144.624-0.845-156.016-1.138-162.757-4.18-15.551-7.012-19.846-15.45-22.553-44.277-2.347-25.009-6.727-32.776-21.461-38.030-10.191-3.634-114.838-3.554-125.164 0.096zM49.112 29.685c-8.949 3.162-16.428 11.19-18.975 20.36-2.526 9.093-2.472 52.222 0.075 61.398 2.552 9.194 11.608 18.253 20.805 20.805 9.807 2.723 338.931 2.805 348.72 0.088 9.101-2.528 18.716-11.203 21.647-19.534 1.511-4.292 2.369-15.948 2.369-32.192s-0.855-27.9-2.369-32.192c-2.928-8.328-12.546-17.006-21.647-19.534-4.575-1.271-63.082-1.884-175.108-1.838-140.239 0.059-169.45 0.498-175.513 2.64zM285.557 304.324c-8.949 3.162-16.428 11.19-18.975 20.36-2.707 9.749-2.638 233.504 0.075 243.276 2.552 9.194 11.608 18.253 20.805 20.805 11.009 3.056 105.292 2.544 114.166-0.618 14.907-5.315 19.201-13.119 21.463-38.983 2.584-29.555 6.828-38.054 22.548-45.143 6.839-3.083 22.031-3.322 267.34-4.18 237.058-0.829 260.573-1.175 265.549-3.906 13.982-7.673 17.115-16.612 17.115-48.839s-3.133-41.165-17.115-48.839c-4.977-2.731-28.492-3.077-265.549-3.906-245.309-0.858-260.501-1.095-267.34-4.18-15.879-7.162-20.067-15.711-22.545-46.009-2.185-26.741-6.386-34.555-21.466-39.935-10.151-3.621-105.779-3.541-116.068 0.096zM49.112 397.083c-8.949 3.162-16.428 11.19-18.975 20.36-2.523 9.088-2.472 50.405 0.075 59.578 2.552 9.194 11.608 18.253 20.805 20.805 11.182 3.104 134.316 2.574 143.265-0.618 17.323-6.178 21.17-15.285 21.17-50.109s-3.847-43.931-21.17-50.109c-10.26-3.658-134.782-3.575-145.17 0.096zM654.772 669.903c-8.949 3.162-16.428 11.19-18.975 20.36-2.707 9.749-2.638 235.321 0.075 245.096 2.552 9.194 11.608 18.253 20.805 20.805 11.009 3.056 105.292 2.544 114.166-0.618 14.547-5.187 19.015-12.911 21.455-37.073 2.843-28.151 7.223-36.572 22.556-43.35 6.413-2.835 15.967-3.317 82.731-4.18 65.453-0.845 76.206-1.372 80.94-3.972 14.467-7.939 17.115-16.199 17.115-53.386s-2.648-45.447-17.115-53.386c-4.734-2.598-15.487-3.125-80.94-3.972-66.764-0.861-76.318-1.345-82.731-4.18-15.506-6.852-19.846-15.359-22.553-44.211-2.347-25.009-6.727-32.776-21.461-38.030-10.151-3.621-105.779-3.541-116.068 0.096zM49.112 759.026c-8.949 3.162-16.428 11.19-18.975 20.36-2.528 9.109-2.475 59.49 0.075 68.671 2.552 9.194 11.608 18.253 20.805 20.805 5.062 1.404 80.373 1.974 254.546 1.926 262.544-0.075 255.423 0.152 265.011-8.376 8.747-7.777 10.457-15.754 10.457-48.825s-1.708-41.048-10.457-48.825c-9.597-8.534-2.366-8.307-265.922-8.307-209.347 0-249.407 0.402-255.542 2.571z" />
<glyph unicode="&#xf04e;" glyph-name="eye" d="M512 800c-192 0-416-128-512-384 96-192 288-320 512-320s416 128 512 320c-96 256-320 384-512 384zM512 160c-192 0-352 128-384 256 32 128 192 256 384 256s352-128 384-256c-32-128-192-256-384-256zM512 608c-20 0-38-4-56-9 33-15 56-48 56-87 0-53-43-96-96-96-39 0-72 23-87 56-5-18-9-36-9-56 0-106 86-192 192-192s192 86 192 192-86 192-192 192z" />
<glyph unicode="&#xf04f;" glyph-name="testimonial" d="M292.571 484.57c0 73.143 0 219.429 0 219.429s-182.857 0-219.429 0-73.143-36.571-73.143-73.143 0-329.144 0-365.715 36.571-73.143 73.143-73.143 73.143 0 73.143 0v-219.429l221.714 219.429s185.143 0 219.429 0 70.857 36.571 70.857 73.143 0 73.143 0 73.143-146.286 0-219.429 0-146.286 73.143-146.286 146.286zM950.859 923.429c-36.571 0-475.43 0-512.001 0s-73.143-36.571-73.143-73.143 0-329.144 0-365.715 36.571-73.143 73.143-73.143 217.143 0 217.143 0l221.714-219.429v219.429s36.571 0 73.143 0 73.143 36.571 73.143 73.143 0 329.144 0 365.715-36.571 73.143-73.143 73.143z" />
<glyph unicode="&#xf07c;" glyph-name="settings" d="M73.142 9.142h146.286v219.428h-146.286v-219.428zM219.428 886.858h-146.286v-365.714h146.286v365.714zM585.142 886.858h-146.286v-146.286h146.286v146.286zM0 301.714h292.572v146.286h-292.572v-146.286zM438.858 9.142h146.286v438.858h-146.286v-438.858zM365.714 521.142h292.572v146.286h-292.572v-146.286zM950.858 886.858h-146.286v-438.858h146.286v438.858zM731.428 374.858v-146.286h292.572v146.286h-292.572zM804.572 9.142h146.286v146.286h-146.286v-146.286z" />
</font>
</defs>
</svg>
